PathFileType	4	(X/Y/Z)	subject01_walk1.trc
DataRate	CameraRate	NumFrames	NumMarkers	Units	OrigDataRate	OrigDataStartFrame	OrigNumFrames
60.00	60.00	       6	41	mm	60.00	1	       151
Frame#	Time	R.ASIS			L.ASIS			V.Sacral			R.Thigh.Upper			R.Thigh.Front			R.Thigh.Rear			L.Thigh.Upper			L.Thigh.Front			L.Thigh.Rear			R.Shank.Upper			R.Shank.Front			R.Shank.Rear			L.Shank.Upper			L.Shank.Front			L.Shank.Rear			R.Heel			R.Midfoot.Sup			R.Midfoot.Lat			R.Toe.Tip			L.Heel			L.Midfoot.Sup			L.Midfoot.Lat			L.Toe.Tip			Sternum			R.Acromium			L.Acromium			R.Bicep			L.Bicep			R.Elbow			L.Elbow			R.Wrist.Med			R.Wrist.Lat			L.Wrist.Med			L.Wrist.Lat			R.Toe.Lat			R.Toe.Med			L.Toe.Lat			L.Toe.Med			R.Temple			L.Temple			Top.Head			
		X1	Y1	Z1	X2	Y2	Z2	X3	Y3	Z3	X4	Y4	Z4	X5	Y5	Z5	X6	Y6	Z6	X7	Y7	Z7	X8	Y8	Z8	X9	Y9	Z9	X10	Y10	Z10	X11	Y11	Z11	X12	Y12	Z12	X13	Y13	Z13	X14	Y14	Z14	X15	Y15	Z15	X16	Y16	Z16	X17	Y17	Z17	X18	Y18	Z18	X19	Y19	Z19	X20	Y20	Z20	X21	Y21	Z21	X22	Y22	Z22	X23	Y23	Z23	X24	Y24	Z24	X25	Y25	Z25	X26	Y26	Z26	X27	Y27	Z27	X28	Y28	Z28	X29	Y29	Z29	X30	Y30	Z30	X31	Y31	Z31	X32	Y32	Z32	X33	Y33	Z33	X34	Y34	Z34	X35	Y35	Z35	X36	Y36	Z36	X37	Y37	Z37	X38	Y38	Z38	X39	Y39	Z39	X40	Y40	Z40	X41	Y41	Z41	

1	0.000000	1617.247620	1055.275020	1170.781980	1639.606380	1044.258420	911.090210	1430.869840	1051.264650	1029.966750	1517.332700	741.096010	1212.083370	1570.201480	666.705570	1123.685540	1480.064270	626.514830	1199.553850	1659.578920	745.057980	854.027820	1750.480900	735.850100	926.514950	1697.429630	642.681820	862.630400	1360.903900	474.040040	1186.849290	1420.867430	412.366030	1134.719330	1343.737370	388.036680	1189.831620	1750.326230	446.176970	871.472230	1819.763850	415.132170	918.300000	1750.045840	397.940980	861.116000	1156.442760	113.073070	1104.002570	1297.180880	88.122130	1067.068500	1288.246640	73.766230	1176.630140	1429.092860	43.086100	1110.597690	1815.764160	63.397880	948.241310	1967.989930	122.580540	967.229600	1943.789250	105.337200	877.655580	2078.709350	143.547960	939.064130	1660.826780	1353.775270	1020.198390	1566.598390	1449.579590	1229.996520	1596.423830	1468.968140	813.299790	1593.641480	1249.107910	1279.776400	1580.734680	1233.741330	777.072680	1567.002500	1143.109250	1315.566310	1518.102780	1146.324830	739.041720	1771.563290	973.779110	1273.787600	1746.206970	944.378110	1327.452820	1619.823060	916.169800	781.672730	1574.162540	905.877320	723.878540	1366.122960	35.908210	1193.140780	1375.865840	39.868800	1081.171850	2022.039610	113.138240	863.541890	2034.970460	125.078770	965.061790	1736.522340	1571.581540	1106.420870	1748.242000	1574.964110	968.332770	1749.332460	1747.607670	1046.741460	
2	0.017000	1617.998110	1053.217530	1168.513170	1641.236210	1042.278560	909.067870	1432.340610	1050.237430	1026.846790	1516.613770	740.425900	1211.219420	1570.518920	664.198730	1123.393650	1479.640380	625.653080	1199.315280	1661.613100	743.567320	853.561280	1756.852230	736.423030	922.839160	1700.719790	641.492980	864.246930	1357.694060	474.357210	1187.046230	1415.392180	411.818080	1134.787280	1336.911320	390.057340	1190.880170	1755.121090	443.931430	871.265300	1820.419740	409.886230	920.968290	1750.565120	396.968080	862.692140	1141.983630	121.290870	1105.037800	1281.978730	91.634580	1068.466230	1271.807310	75.749180	1177.510510	1409.883610	43.139170	1110.563590	1799.819890	65.800630	950.053700	1957.451660	113.746440	972.322900	1943.789250	105.337200	877.655580	2069.276610	128.480790	943.798500	1661.329160	1352.708250	1017.243570	1566.924800	1448.941530	1226.132840	1596.420230	1466.414920	808.522890	1593.204530	1248.558350	1276.043640	1582.396420	1230.638430	774.054860	1566.137330	1142.562130	1312.590550	1519.930420	1142.172850	737.158390	1767.166440	969.574220	1272.552610	1742.405520	941.010620	1325.924410	1623.054810	912.317320	779.581440	1576.285830	902.639040	721.536500	1346.245030	35.811000	1193.414950	1358.949890	39.805740	1080.935070	2011.082150	101.083560	867.472660	2024.002200	111.614400	969.320300	1736.041870	1570.830570	1101.785740	1748.411620	1574.041500	963.334870	1750.679810	1746.670410	1041.164230	
3	0.033000	1620.292240	1051.771240	1165.859380	1643.596920	1041.060790	905.692780	1434.099430	1049.341430	1023.819360	1517.778930	739.680910	1209.929780	1570.455080	663.090940	1123.093710	1479.470610	625.036680	1199.232740	1663.777160	742.559390	852.793140	1760.838620	737.404660	919.493860	1702.586000	640.568480	865.488660	1355.966030	476.074310	1187.729060	1411.189450	410.485350	1135.654970	1332.246430	392.039550	1191.390080	1755.766360	441.964970	873.196270	1821.314880	407.066130	923.002090	1750.775880	396.232850	863.767840	1128.058360	130.381680	1106.092020	1267.076810	95.341160	1069.879100	1255.805770	78.122710	1178.352940	1390.767520	43.101560	1110.350460	1784.396790	68.058780	951.163470	1946.333250	105.409500	976.514030	1932.771240	97.336270	879.356730	2059.063960	113.935060	947.715940	1663.198120	1351.786870	1013.631070	1567.569700	1448.222290	1221.828410	1596.462100	1463.917850	803.980620	1593.008850	1248.748410	1272.547940	1585.184450	1227.726070	771.094990	1564.973450	1142.939940	1308.379270	1523.074520	1139.112790	733.562350	1762.157470	964.989500	1271.422970	1735.976990	937.316220	1324.738190	1626.505070	909.226810	776.808730	1579.662290	899.121220	718.926910	1328.922580	34.778720	1193.968580	1341.756870	39.430590	1080.787350	1999.318420	89.325510	870.675800	2012.506290	98.882810	972.712000	1736.570860	1570.542240	1096.864830	1748.854680	1571.859500	958.059190	1751.039670	1746.680180	1036.059210	
4	0.050000	1621.540410	1050.552120	1163.532500	1646.751040	1040.356810	903.138120	1436.279940	1048.707150	1020.952020	1519.197450	739.325810	1208.325210	1571.931270	661.637510	1123.224230	1481.819180	624.230160	1198.056850	1666.235050	742.390320	851.506900	1763.567630	737.954160	915.979850	1703.218810	640.386410	866.096570	1356.086670	476.893160	1187.230710	1409.443730	410.433780	1135.696300	1329.610750	394.471250	1191.915270	1758.634460	441.582490	872.984540	1821.669010	405.638150	924.213910	1750.514220	395.895660	863.835100	1115.332880	141.108140	1107.070240	1252.839020	99.488570	1071.288980	1240.509050	81.288460	1179.090060	1371.835020	42.888710	1109.902530	1769.445980	70.037540	951.231660	1934.096920	97.975190	979.102260	1920.937990	90.006970	880.523560	2047.431270	100.489810	950.234840	1664.717710	1351.305050	1009.243790	1568.009460	1448.125610	1216.410840	1599.003850	1461.877810	798.936110	1592.682070	1249.016110	1268.268010	1587.178590	1225.284180	767.828990	1562.626890	1143.382200	1304.280610	1526.087160	1135.987550	731.125610	1756.536870	960.192750	1270.024320	1729.973750	933.632810	1323.821110	1629.702330	906.313720	774.421660	1581.977540	895.941040	716.940860	1310.683750	34.731330	1194.065190	1324.278960	38.879560	1080.764400	1986.249820	78.367200	872.670390	1999.945920	87.508250	974.723220	1736.536250	1571.208250	1092.581090	1749.982240	1572.002440	954.003100	1751.068420	1747.012820	1030.698870	
5	0.067000	1624.588440	1050.928340	1161.246140	1649.254150	1041.425170	901.515390	1438.827940	1048.451050	1018.272670	1522.168460	738.279050	1206.223540	1577.197880	661.205260	1122.122270	1485.720400	623.187560	1197.993480	1669.024960	743.210330	849.594880	1766.526370	737.576110	913.451470	1706.448610	641.321410	864.520030	1359.100430	478.782710	1187.310710	1409.768550	409.989720	1136.622990	1328.795900	397.801030	1192.135210	1764.306760	441.880950	870.224560	1819.406800	403.626710	924.942230	1749.661990	395.971590	862.531300	1104.669980	154.010060	1107.811000	1239.742050	104.378020	1072.631480	1226.079570	85.658600	1179.645800	1353.209260	42.461980	1109.340610	1754.430300	71.636760	950.356100	1920.410160	91.703790	979.805010	1907.756770	83.828000	880.878010	2034.057620	88.697920	951.201580	1666.132510	1351.515630	1004.628110	1568.555970	1448.636470	1211.908680	1600.127260	1460.291500	793.902560	1591.977600	1249.313840	1263.233830	1590.491820	1223.499880	763.962050	1560.859860	1144.384640	1300.735020	1528.632200	1134.045040	728.079350	1750.106320	955.174440	1269.175260	1721.467770	930.058110	1323.391390	1633.410340	904.049440	772.028750	1586.006770	894.022830	714.094540	1292.770320	33.787990	1194.147090	1306.888700	38.662980	1080.807630	1971.722960	68.749270	873.360120	1985.938290	77.908320	975.331900	1737.625490	1572.048340	1087.804470	1750.345700	1572.990230	948.895430	1750.734190	1748.232790	1025.321170	
6	0.083000	1628.158630	1051.420170	1158.448990	1652.041260	1043.046510	898.142630	1441.572050	1048.661250	1015.770330	1526.802800	738.126100	1205.653310	1584.087340	660.597960	1120.847050	1490.793640	622.241580	1197.319820	1671.815490	744.888060	847.049500	1766.966800	739.853030	914.967090	1709.177310	643.279050	863.869460	1366.042110	481.020420	1188.673520	1413.341310	408.717530	1136.338440	1330.846560	400.647670	1193.439000	1759.475890	442.173430	869.262240	1816.065430	402.276180	924.555270	1747.885310	396.323910	859.883680	1097.064280	169.387220	1108.161000	1228.389510	110.307750	1073.808850	1212.842180	91.667360	1179.952120	1335.073210	41.768600	1108.900650	1738.832400	72.809520	948.846310	1905.336360	86.733850	978.958600	1893.109800	79.002090	880.437480	2019.033330	78.890880	950.875600	1667.783870	1352.009890	999.868660	1570.762570	1450.026610	1206.862260	1600.595580	1460.497190	788.592800	1590.940120	1250.751220	1259.042850	1593.760560	1223.083250	760.285570	1558.846010	1145.637450	1295.842770	1533.799440	1131.967160	725.469270	1742.861330	950.519170	1268.833560	1712.263000	929.030090	1323.789580	1635.945860	902.428530	771.012220	1588.334780	891.757260	712.984070	1276.405880	34.303540	1194.019680	1290.229950	39.311170	1080.831730	1955.870060	60.793510	872.984790	1970.424560	70.228080	974.884680	1738.612000	1573.103390	1082.110920	1751.778260	1575.626830	944.185300	1751.360840	1749.582520	1019.812450	
